<?xml version="1.0" encoding="UTF-8"?><svg xmlns="http://www.w3.org/2000/svg" xmlns:xlink="http://www.w3.org/1999/xlink" viewBox="0 0 520.11 421.46"><defs><style>.g{fill:url(#e);}.h{fill:url(#d);}.i{fill:url(#f);}.j{fill:#f39200;}.k{fill:#202020;}</style><radialGradient id="d" cx="256.83" cy="158.75" fx="256.83" fy="158.75" r="199.12" gradientTransform="translate(470.79 -49.33) rotate(90)" gradientUnits="userSpaceOnUse"><stop offset=".69" stop-color="#9e1915"/><stop offset=".98" stop-color="#e03e13"/></radialGradient><linearGradient id="e" x1="345.08" y1="414.77" x2="470.79" y2="414.77" gradientTransform="translate(470.79 -49.33) rotate(90)" gradientUnits="userSpaceOnUse"><stop offset="0" stop-color="#9e1915"/><stop offset="1" stop-color="#e03e13"/></linearGradient><linearGradient id="f" x1="342.82" y1="416.43" x2="468.52" y2="416.43" gradientTransform="translate(520.96 71.5) rotate(104.75)" xlink:href="#e"/></defs><g id="a"/><g id="b"><g id="c"><g><circle class="k" cx="312.62" cy="207.5" r="207.5"/><circle class="h" cx="312.04" cy="207.5" r="193.73"/><circle class="j" cx="312.04" cy="207.5" r="149.82"/></g><g><g><path class="k" d="M15.57,10.07L53.47,292.18l16.3,121.53c.25,1.87-.85,4.98-3.37,6.1-1.51,.67-3.42,1.06-5.7,.59-2.92-.6-4.79-2.35-5.01-4.36L9.9,10.63s2.45-2.73,5.67-.56Z"/><path class="g" d="M53.95,295.76l15.82,117.96s.5,2.68-1.65,5.52c-1.77,2.34-5.57,2.9-8.67,1.38-.89-.44-3.5-2.36-3.77-4.57l-13.48-119.32,11.73-.96Z"/></g><polygon class="j" points="60.05 341.27 61.17 349.62 48.38 351.33 47.42 342.8 60.05 341.27"/><polygon class="j" points="62.55 360.15 63.71 368.5 50.53 370.21 49.53 361.68 62.55 360.15"/></g><g><g><path class="k" d="M64.59,10.44L29.42,292.91l-15.17,121.68c-.23,1.87-2.09,4.6-4.81,5.04-1.63,.26-3.58,.15-5.66-.88-2.67-1.32-4.03-3.49-3.74-5.49L58.97,9.54s3.07-2.02,5.63,.9Z"/><path class="i" d="M28.98,296.49l-14.73,118.1s-.2,2.72-3,4.92c-2.31,1.81-6.13,1.38-8.73-.88-.75-.65-2.78-3.17-2.48-5.38l17.34-118.82,11.59,2.06Z"/></g><polygon class="j" points="23.29 342.06 22.25 350.42 9.44 348.81 10.68 340.32 23.29 342.06"/><polygon class="j" points="20.91 360.95 19.9 369.32 6.72 367.62 7.93 359.12 20.91 360.95"/></g></g></g></svg>